<!DOCTYPE svg PUBLIC "-//W3C//DTD SVG 20010904//EN" "http://www.w3.org/TR/2001/REC-SVG-20010904/DTD/svg10.dtd">
<svg version="1.0" xmlns="http://www.w3.org/2000/svg" width="191px" height="176px" viewBox="0 0 1910 1760" preserveAspectRatio="xMidYMid meet">
<g id="layer101" fill="#264357" stroke="none">
 <path d="M0 880 l0 -880 955 0 955 0 0 880 0 880 -955 0 -955 0 0 -880z"/>
 </g>
<g id="layer102" fill="#e9ecee" stroke="none">
 <path d="M720 1454 l-80 -77 0 -113 0 -114 -108 0 -109 0 -81 -76 -82 -76 0 -143 0 -143 82 -76 83 -76 107 0 108 0 0 -114 0 -114 82 -76 81 -76 146 0 146 0 78 78 77 77 0 68 0 67 -45 0 -45 0 0 -43 c0 -39 -5 -48 -58 -100 l-58 -57 -98 0 -97 0 -60 57 -60 57 3 85 3 86 110 5 110 5 0 40 0 40 -246 5 -245 5 -57 54 -57 54 0 92 0 92 60 57 59 57 83 -3 83 -3 3 -47 c3 -44 7 -50 84 -122 l82 -76 121 0 122 0 56 -59 c52 -54 57 -63 57 -105 0 -36 5 -48 26 -65 24 -19 40 -21 158 -21 l131 0 78 78 77 77 0 140 0 140 -78 78 -77 77 -113 0 -112 0 0 113 0 112 -78 78 -77 77 -148 0 -147 0 -80 -76z m384 -71 l56 -58 -2 -85 -3 -85 -87 -3 -88 -3 0 -44 0 -45 222 0 222 0 58 -57 58 -57 0 -91 0 -90 -56 -58 -55 -58 -87 3 -87 3 -3 45 c-3 41 -10 52 -80 123 l-77 77 -121 0 -121 0 -61 56 -62 56 0 168 0 168 58 46 57 46 101 0 101 0 57 -57z"/>
 <path d="M982 1288 l3 -43 45 0 45 0 3 43 3 42 -51 0 -51 0 3 -42z"/>
 <path d="M830 430 l0 -50 40 0 c34 0 41 4 46 25 3 14 3 36 0 50 -5 21 -12 25 -46 25 l-40 0 0 -50z"/>
 </g>

</svg>